<svg width="44" height="35" viewBox="0 0 44 35" fill="none" xmlns="http://www.w3.org/2000/svg">
<path d="M14.4 16.7C16.0667 17.4333 17.3667 18.5333 18.3 20C19.2333 21.4667 19.7 23.2 19.7 25.2C19.7 28.0667 18.8 30.4 17 32.2C15.2 33.9333 12.9 34.8 10.1 34.8C7.3 34.8 4.96667 33.9 3.1 32.1C1.3 30.3 0.4 28 0.4 25.2C0.4 23.8667 0.566667 22.5333 0.9 21.2C1.23333 19.8667 1.96667 17.8667 3.1 15.2L8.9 0.799996H18.8L14.4 16.7ZM38 16.7C39.6667 17.4333 40.9667 18.5333 41.9 20C42.8333 21.4667 43.3 23.2 43.3 25.2C43.3 28.0667 42.4 30.4 40.6 32.2C38.8 33.9333 36.5 34.8 33.7 34.8C30.9 34.8 28.5667 33.9 26.7 32.1C24.9 30.3 24 28 24 25.2C24 23.8667 24.1667 22.5333 24.5 21.2C24.8333 19.8667 25.5667 17.8667 26.7 15.2L32.5 0.799996H42.4L38 16.7Z" fill="white"/>
</svg>
