<svg xmlns="http://www.w3.org/2000/svg" width="135" height="45" viewBox="0 0 135 45">
  <g id="Download_on_the_App_Store_Badge_RU_RGB_blk_100317" transform="translate(0 0)">
    <g id="Group_5525" data-name="Group 5525" transform="translate(0 0)">
      <g id="Group_5523" data-name="Group 5523">
        <path id="Path_59567" data-name="Path 59567" d="M124.249,0H10.757c-.414,0-.822,0-1.235,0-.345,0-.688.009-1.037.014a14.949,14.949,0,0,0-2.261.2A7.534,7.534,0,0,0,4.08.921,7.262,7.262,0,0,0,2.254,2.247,7.042,7.042,0,0,0,.924,4.07,7.412,7.412,0,0,0,.219,6.212a14.577,14.577,0,0,0-.2,2.252C.007,8.809.006,9.155,0,9.5v26c.006.349.007.688.017,1.037a14.577,14.577,0,0,0,.2,2.252,7.4,7.4,0,0,0,.705,2.142,6.985,6.985,0,0,0,1.329,1.816A7.078,7.078,0,0,0,4.08,44.077a7.574,7.574,0,0,0,2.144.71,15.22,15.22,0,0,0,2.261.2c.349.008.691.012,1.037.012.413,0,.821,0,1.235,0H124.249c.405,0,.817,0,1.223,0,.344,0,.7,0,1.04-.012a15.021,15.021,0,0,0,2.256-.2,7.691,7.691,0,0,0,2.153-.71,7.081,7.081,0,0,0,1.824-1.326,7.2,7.2,0,0,0,1.333-1.816,7.415,7.415,0,0,0,.7-2.142,15.149,15.149,0,0,0,.209-2.252c0-.349,0-.688,0-1.037.009-.409.009-.815.009-1.231V10.728c0-.412,0-.821-.009-1.228,0-.345,0-.691,0-1.036a15.149,15.149,0,0,0-.209-2.252,7.431,7.431,0,0,0-.7-2.141,7.285,7.285,0,0,0-3.157-3.15,7.65,7.65,0,0,0-2.153-.705,14.756,14.756,0,0,0-2.256-.2c-.344-.005-.7-.012-1.04-.014-.405,0-.817,0-1.223,0Z" transform="translate(0 0)" fill="#a6a6a6"/>
        <path id="Path_59568" data-name="Path 59568" d="M9.416,43.906c-.344,0-.679,0-1.02-.012a14.354,14.354,0,0,1-2.109-.183,6.651,6.651,0,0,1-1.869-.616A6.1,6.1,0,0,1,2.841,41.95,5.987,5.987,0,0,1,1.69,40.379a6.424,6.424,0,0,1-.613-1.864A13.926,13.926,0,0,1,.89,36.406c-.007-.237-.017-1.027-.017-1.027V9.39s.01-.778.017-1.006a13.878,13.878,0,0,1,.187-2.106,6.462,6.462,0,0,1,.613-1.87A6.046,6.046,0,0,1,2.835,2.835a6.278,6.278,0,0,1,1.582-1.15,6.583,6.583,0,0,1,1.865-.612A14.239,14.239,0,0,1,8.4.889L9.416.875H125.36l1.03.014a14.012,14.012,0,0,1,2.1.183,6.713,6.713,0,0,1,1.885.616A6.3,6.3,0,0,1,133.1,4.411a6.47,6.47,0,0,1,.6,1.855,14.58,14.58,0,0,1,.2,2.123c0,.319,0,.661,0,1,.009.422.009.823.009,1.228V34.163c0,.409,0,.808-.009,1.21,0,.366,0,.7,0,1.046A14.284,14.284,0,0,1,133.7,38.5a6.443,6.443,0,0,1-.609,1.879,6.351,6.351,0,0,1-2.725,2.709,6.626,6.626,0,0,1-1.882.619,14.19,14.19,0,0,1-2.109.183c-.33.008-.676.012-1.012.012l-1.223,0Z" transform="translate(0.109 0.11)"/>
      </g>
      <g id="_Group_" data-name="&lt;Group&gt;" transform="translate(11.218 9.81)">
        <g id="_Group_2" data-name="&lt;Group&gt;">
          <g id="_Group_3" data-name="&lt;Group&gt;">
            <path id="_Path_" data-name="&lt;Path&gt;" d="M26.618,21.092a5.567,5.567,0,0,1,2.651-4.671,5.7,5.7,0,0,0-4.49-2.427c-1.889-.2-3.721,1.13-4.683,1.13-.981,0-2.463-1.111-4.06-1.078A5.98,5.98,0,0,0,11,17.115c-2.176,3.767-.553,9.3,1.531,12.348,1.043,1.491,2.261,3.156,3.856,3.1,1.56-.065,2.143-1,4.027-1,1.866,0,2.413,1,4.04.957,1.674-.027,2.729-1.5,3.736-3A12.332,12.332,0,0,0,29.9,26.041,5.38,5.38,0,0,1,26.618,21.092Z" transform="translate(-9.972 -8.064)" fill="#fff"/>
            <path id="_Path_2" data-name="&lt;Path&gt;" d="M22.443,12.647A5.481,5.481,0,0,0,23.7,8.72a5.577,5.577,0,0,0-3.609,1.867A5.216,5.216,0,0,0,18.8,14.369,4.611,4.611,0,0,0,22.443,12.647Z" transform="translate(-8.869 -8.72)" fill="#fff"/>
          </g>
        </g>
        <g id="Group_5524" data-name="Group 5524" transform="translate(27.512 10.295)">
          <path id="Path_59569" data-name="Path 59569" d="M43.287,28.272H37.962l-1.279,3.776H34.427l5.044-13.97h2.343l5.044,13.97H44.564ZM38.513,26.53h4.221L40.653,20.4h-.058Z" transform="translate(-34.427 -17.845)" fill="#fff"/>
          <path id="Path_59570" data-name="Path 59570" d="M56.226,26.548c0,3.165-1.694,5.2-4.251,5.2a3.453,3.453,0,0,1-3.2-1.782h-.048v5.045H46.631V21.454h2.024v1.694h.038a3.613,3.613,0,0,1,3.243-1.8C54.522,21.348,56.226,23.391,56.226,26.548Zm-2.149,0c0-2.062-1.066-3.418-2.692-3.418-1.6,0-2.672,1.384-2.672,3.418,0,2.052,1.074,3.427,2.672,3.427C53.011,29.974,54.077,28.628,54.077,26.548Z" transform="translate(-32.902 -17.437)" fill="#fff"/>
          <path id="Path_59571" data-name="Path 59571" d="M66.19,26.548c0,3.165-1.694,5.2-4.251,5.2a3.453,3.453,0,0,1-3.2-1.782h-.048v5.045H56.6V21.454H58.62v1.694h.038a3.613,3.613,0,0,1,3.243-1.8C64.487,21.348,66.19,23.391,66.19,26.548Zm-2.149,0c0-2.062-1.066-3.418-2.692-3.418-1.6,0-2.672,1.384-2.672,3.418,0,2.052,1.074,3.427,2.672,3.427,1.626,0,2.692-1.346,2.692-3.427Z" transform="translate(-31.656 -17.437)" fill="#fff"/>
          <path id="Path_59572" data-name="Path 59572" d="M71.948,28.182c.155,1.385,1.5,2.295,3.34,2.295,1.762,0,3.03-.91,3.03-2.159,0-1.084-.765-1.734-2.575-2.179L73.932,25.7c-2.565-.62-3.756-1.819-3.756-3.766,0-2.41,2.1-4.066,5.083-4.066,2.952,0,4.976,1.656,5.044,4.066h-2.11c-.126-1.394-1.279-2.236-2.963-2.236s-2.837.851-2.837,2.091c0,.988.736,1.569,2.537,2.014l1.539.378c2.866.678,4.057,1.829,4.057,3.873,0,2.614-2.082,4.251-5.393,4.251-3.1,0-5.19-1.6-5.325-4.125Z" transform="translate(-30.005 -17.871)" fill="#fff"/>
          <path id="Path_59573" data-name="Path 59573" d="M83.744,19.3v2.41h1.937v1.656H83.744v5.615c0,.872.388,1.279,1.239,1.279a6.532,6.532,0,0,0,.688-.048v1.646a5.741,5.741,0,0,1-1.161.1c-2.062,0-2.866-.775-2.866-2.75V23.366H80.163V21.71h1.481V19.3Z" transform="translate(-28.711 -17.692)" fill="#fff"/>
          <path id="Path_59574" data-name="Path 59574" d="M86.065,26.55c0-3.2,1.887-5.218,4.831-5.218s4.832,2.014,4.832,5.218-1.869,5.218-4.832,5.218S86.065,29.763,86.065,26.55Zm7.532,0c0-2.2-1.007-3.5-2.7-3.5s-2.7,1.307-2.7,3.5c0,2.207,1.006,3.495,2.7,3.495s2.7-1.288,2.7-3.495Z" transform="translate(-27.973 -17.439)" fill="#fff"/>
          <path id="Path_59575" data-name="Path 59575" d="M96.186,21.454H98.18v1.734h.048a2.429,2.429,0,0,1,2.45-1.84,3.224,3.224,0,0,1,.716.078v1.956a2.923,2.923,0,0,0-.939-.126A2.107,2.107,0,0,0,98.277,25.6V31.64H96.186Z" transform="translate(-26.708 -17.437)" fill="#fff"/>
          <path id="Path_59576" data-name="Path 59576" d="M110.405,28.65c-.281,1.849-2.082,3.118-4.386,3.118-2.963,0-4.8-1.985-4.8-5.17s1.849-5.267,4.714-5.267c2.818,0,4.59,1.936,4.59,5.024v.716h-7.194V27.2a2.653,2.653,0,0,0,2.74,2.885,2.3,2.3,0,0,0,2.352-1.433Zm-7.067-3.04h5.092a2.449,2.449,0,0,0-2.5-2.585,2.578,2.578,0,0,0-2.594,2.585Z" transform="translate(-26.079 -17.439)" fill="#fff"/>
        </g>
      </g>
    </g>
    <g id="_Group_4" data-name="&lt;Group&gt;" transform="translate(39.767 9.642)">
      <g id="Group_5526" data-name="Group 5526">
        <path id="Path_59577" data-name="Path 59577" d="M36.912,11.589h.9a1.127,1.127,0,0,0,1.266-1.07c0-.619-.466-1.019-1.256-1.019a1.2,1.2,0,0,0-1.355,1.051h-.985a2.1,2.1,0,0,1,2.372-1.963c1.322,0,2.252.74,2.252,1.805a1.559,1.559,0,0,1-1.219,1.535v.079a1.564,1.564,0,0,1,1.493,1.623,2.242,2.242,0,0,1-2.507,2,2.231,2.231,0,0,1-2.521-1.986h1c.06.642.65,1.056,1.52,1.056s1.438-.465,1.438-1.121-.535-1.075-1.47-1.075h-.926Z" transform="translate(-35.349 -8.57)" fill="#fff"/>
        <path id="Path_59578" data-name="Path 59578" d="M40.829,13.839c0-.912.68-1.438,1.884-1.512l1.372-.079V11.81c0-.535-.353-.837-1.037-.837-.558,0-.944.2-1.056.563h-.968c.1-.87.922-1.428,2.071-1.428,1.27,0,1.986.632,1.986,1.7v3.461h-.963V14.56h-.079a1.7,1.7,0,0,1-1.522.8,1.53,1.53,0,0,1-1.689-1.516Zm3.256-.433v-.424l-1.237.079c-.7.047-1.014.284-1.014.731s.4.721.939.721a1.194,1.194,0,0,0,1.312-1.107Z" transform="translate(-34.664 -8.378)" fill="#fff"/>
        <path id="Path_59579" data-name="Path 59579" d="M47.079,11.036v4.224h-1V10.195h3.335v.841Z" transform="translate(-34.007 -8.367)" fill="#fff"/>
        <path id="Path_59580" data-name="Path 59580" d="M54.955,12.735c0,1.609-.814,2.619-2.093,2.619A1.651,1.651,0,0,1,51.3,14.5h-.079v2.452h-1V10.2h.962v.837h.075a1.76,1.76,0,0,1,1.591-.921C54.141,10.12,54.955,11.125,54.955,12.735Zm-1.028,0c0-1.07-.506-1.717-1.354-1.717s-1.368.66-1.368,1.721.526,1.717,1.363,1.717S53.927,13.809,53.927,12.735Z" transform="translate(-33.489 -8.377)" fill="#fff"/>
        <path id="Path_59581" data-name="Path 59581" d="M55.671,17.075v-.861a2.363,2.363,0,0,0,.326.019.867.867,0,0,0,.916-.707l.075-.247-1.834-5.084h1.089l1.27,4.024h.079l1.266-4.024h1.06L58.029,15.47C57.6,16.7,57.118,17.1,56.085,17.1,56,17.1,55.764,17.089,55.671,17.075Z" transform="translate(-32.873 -8.367)" fill="#fff"/>
        <path id="Path_59582" data-name="Path 59582" d="M60.081,13.836h1c.1.447.516.679,1.1.679.666,0,1.074-.293,1.074-.749,0-.488-.367-.721-1.074-.721H61.42v-.777h.745c.6,0,.912-.232.912-.656,0-.372-.3-.656-.912-.656-.559,0-.968.237-1.033.637h-.963a1.775,1.775,0,0,1,2-1.484c1.2,0,1.893.544,1.893,1.4a1.041,1.041,0,0,1-.8,1.037v.079a1.136,1.136,0,0,1,.991,1.14c0,.963-.82,1.6-2.071,1.6C61.072,15.366,60.173,14.859,60.081,13.836Z" transform="translate(-32.257 -8.38)" fill="#fff"/>
        <path id="Path_59583" data-name="Path 59583" d="M65.066,15.261V10.195h.991v3.484h.079l2.335-3.484h.991v5.066h-.991v-3.5H68.4l-2.339,3.5Z" transform="translate(-31.634 -8.367)" fill="#fff"/>
        <path id="Path_59584" data-name="Path 59584" d="M74.291,11.036H72.7v4.224h-1V11.036H70.1v-.841h4.191Z" transform="translate(-31.005 -8.367)" fill="#fff"/>
        <path id="Path_59585" data-name="Path 59585" d="M79.119,13.9a2.059,2.059,0,0,1-2.2,1.466,2.3,2.3,0,0,1-2.34-2.615,2.336,2.336,0,0,1,2.336-2.647c1.41,0,2.261.963,2.261,2.554v.349H75.6v.056a1.338,1.338,0,0,0,1.349,1.451,1.214,1.214,0,0,0,1.2-.614ZM75.6,12.271H78.16a1.222,1.222,0,0,0-1.246-1.312A1.294,1.294,0,0,0,75.6,12.271Z" transform="translate(-30.447 -8.378)" fill="#fff"/>
        <path id="Path_59586" data-name="Path 59586" d="M82.38,10.195h2.284c.991,0,1.572.5,1.572,1.288a1.088,1.088,0,0,1-.856,1.07v.079A1.156,1.156,0,0,1,86.464,13.8c0,.884-.665,1.461-1.776,1.461H82.38Zm.991.767v1.312h.991c.6,0,.893-.232.893-.661,0-.395-.252-.651-.782-.651Zm0,2.047v1.484h1.185c.591,0,.907-.261.907-.74,0-.507-.358-.744-1.033-.744Z" transform="translate(-29.47 -8.367)" fill="#fff"/>
      </g>
    </g>
  </g>
</svg>
