<svg width="15" height="15" viewBox="0 0 15 15" fill="none" xmlns="http://www.w3.org/2000/svg">
<path fill-rule="evenodd" clip-rule="evenodd" d="M1.85496e-07 1.25318C1.85496e-07 0.920816 0.132031 0.602067 0.367049 0.36705C0.602066 0.132033 0.920816 1.67066e-06 1.25318 1.67066e-06H13.7455C13.9102 -0.000267342 14.0733 0.0319537 14.2255 0.0948198C14.3778 0.157686 14.5161 0.249963 14.6326 0.366367C14.7492 0.482772 14.8416 0.621018 14.9047 0.773189C14.9677 0.925364 15.0001 1.08847 15 1.25318V13.7455C15.0002 13.9102 14.9679 14.0733 14.905 14.2256C14.842 14.3778 14.7496 14.5162 14.6332 14.6327C14.5167 14.7492 14.3785 14.8417 14.2262 14.9047C14.074 14.9677 13.9109 15.0001 13.7461 15H1.25318C1.08856 15 0.925541 14.9675 0.773454 14.9045C0.621365 14.8415 0.483185 14.7492 0.366807 14.6327C0.25043 14.5162 0.158135 14.378 0.0951975 14.2259C0.0322591 14.0738 -8.93836e-05 13.9108 1.85496e-07 13.7461V1.25318ZM5.93727 5.71909H7.96841V6.73909C8.26159 6.15273 9.01159 5.625 10.1386 5.625C12.2993 5.625 12.8114 6.79295 12.8114 8.93591V12.9055H10.6248V9.42409C10.6248 8.20364 10.3316 7.515 9.58704 7.515C8.55409 7.515 8.12455 8.2575 8.12455 9.42409V12.9055H5.93727V5.71909ZM2.18727 12.812H4.37455V5.625H2.18727V12.8114V12.812ZM4.6875 3.28091C4.69162 3.46818 4.6583 3.6544 4.58948 3.82863C4.52067 4.00285 4.41774 4.16157 4.28675 4.29547C4.15576 4.42938 3.99934 4.53578 3.82668 4.60842C3.65401 4.68105 3.46857 4.71847 3.28125 4.71847C3.09393 4.71847 2.90849 4.68105 2.73583 4.60842C2.56316 4.53578 2.40674 4.42938 2.27575 4.29547C2.14476 4.16157 2.04183 4.00285 1.97302 3.82863C1.9042 3.6544 1.87087 3.46818 1.875 3.28091C1.88309 2.91331 2.03481 2.56349 2.29765 2.30638C2.56049 2.04926 2.91356 1.90529 3.28125 1.90529C3.64894 1.90529 4.00201 2.04926 4.26485 2.30638C4.52769 2.56349 4.67941 2.91331 4.6875 3.28091Z" fill="#373737"/>
</svg>
