<svg width="328" height="69" viewBox="0 0 328 69" fill="none" xmlns="http://www.w3.org/2000/svg">
<path d="M62.526 47.6579V21.343C62.5221 19.9554 62.1487 18.5935 61.4436 17.3958C60.7386 16.1982 59.7271 15.2075 58.5121 14.5245L35.2804 1.36659C34.057 0.67526 32.674 0.311787 31.2669 0.311787C29.8597 0.311787 28.4767 0.67526 27.2534 1.36659L4.02168 14.5245C2.80519 15.2065 1.79216 16.1968 1.08573 17.3945C0.3793 18.5922 0.00468708 19.9546 0 21.343V47.6579C0.0039142 49.0456 0.377371 50.4075 1.08241 51.6051C1.78744 52.8028 2.79892 53.7935 4.01398 54.4765L27.2457 67.6344C28.469 68.3257 29.852 68.6892 31.2591 68.6892C32.6663 68.6892 34.0493 68.3257 35.2727 67.6344L58.5043 54.4765C59.7208 53.7944 60.7338 52.8042 61.4403 51.6065C62.1467 50.4088 62.5213 49.0463 62.526 47.6579Z" fill="url(#paint0_linear_69_554)"/>
<path d="M52.1451 43.2898V25.7121C52.1427 24.7853 51.8933 23.8756 51.4224 23.0757C50.9515 22.2758 50.2759 21.6141 49.4643 21.1581L33.9444 12.3692C33.1273 11.9075 32.2035 11.6647 31.2636 11.6647C30.3237 11.6647 29.3999 11.9075 28.5828 12.3692L13.0628 21.1581C12.2509 21.6139 11.5749 22.2754 11.1036 23.0754C10.6324 23.8753 10.3828 24.7851 10.3801 25.7121V43.2898C10.3826 44.2167 10.6319 45.1263 11.1028 45.9262C11.5737 46.7262 12.2493 47.3878 13.0609 47.8438L28.5809 56.6327C29.398 57.0944 30.3217 57.3372 31.2616 57.3372C32.2015 57.3372 33.1253 57.0944 33.9425 56.6327L49.4624 47.8438C50.2744 47.388 50.9504 46.7265 51.4216 45.9266C51.8928 45.1266 52.1425 44.2169 52.1451 43.2898Z" fill="url(#paint1_linear_69_554)"/>
<path d="M42.3097 39.1498V29.854C42.3081 29.3638 42.176 28.8827 41.927 28.4596C41.678 28.0364 41.3208 27.6863 40.8917 27.4448L32.6815 22.7959C32.2493 22.5517 31.7607 22.4233 31.2636 22.4233C30.7664 22.4233 30.2778 22.5517 29.8456 22.7959L21.6354 27.4448C21.2066 27.6862 20.8496 28.036 20.6006 28.4587C20.3516 28.8815 20.2194 29.3622 20.2174 29.8521V39.1479C20.219 39.6382 20.351 40.1192 20.6001 40.5424C20.8491 40.9655 21.2063 41.3156 21.6354 41.5572L29.8456 46.206C30.2778 46.4503 30.7664 46.5787 31.2636 46.5787C31.7607 46.5787 32.2493 46.4503 32.6815 46.206L40.8917 41.5572C41.3205 41.3158 41.6775 40.966 41.9265 40.5432C42.1755 40.1204 42.3077 39.6398 42.3097 39.1498Z" fill="url(#paint2_linear_69_554)"/>
<path d="M96.7094 50.2924C101.88 50.2924 106.161 48.438 108.959 45.0215L104.555 40.9802C103.658 42.0861 102.52 42.9752 101.227 43.5809C99.9343 44.1866 98.5202 44.4931 97.0911 44.4772C95.8295 44.5325 94.5701 44.3263 93.393 43.8715C92.216 43.4168 91.147 42.7235 90.254 41.8357C89.361 40.948 88.6637 39.8852 88.2062 38.715C87.7488 37.5448 87.5413 36.2928 87.597 35.0386C87.5413 33.7844 87.7488 32.5323 88.2062 31.3621C88.6637 30.1919 89.361 29.1292 90.254 28.2414C91.147 27.3537 92.216 26.6604 93.393 26.2056C94.5701 25.7509 95.8295 25.5446 97.0911 25.6C98.516 25.5858 99.926 25.8889 101.218 26.4873C102.509 27.0856 103.65 27.9639 104.555 29.0576L108.963 25.0125C106.168 21.6411 101.885 19.7877 96.7566 19.7877C87.5122 19.7848 80.6487 26.1472 80.6487 35.0386C80.6487 43.93 87.5122 50.2924 96.7094 50.2924ZM134.304 38.5365C134.304 31.2465 129.134 26.7806 122.437 26.7806C115.486 26.7806 110.272 31.6681 110.272 38.4522C110.272 45.194 115.401 50.1237 123.286 50.1237C127.397 50.1237 130.577 48.8597 132.695 46.4581L129.177 42.666C128.424 43.3998 127.528 43.9728 126.544 44.3495C125.56 44.7263 124.508 44.8989 123.455 44.8567C119.98 44.8567 117.563 43.1317 116.928 40.3056H134.183C134.22 39.7574 134.305 39.0415 134.305 38.5355L134.304 38.5365ZM122.48 31.7515C123.838 31.6982 125.166 32.1538 126.201 33.0279C127.237 33.9021 127.904 35.131 128.071 36.4713H116.843C117.006 35.1208 117.679 33.8823 118.725 33.0062C119.772 32.13 121.114 31.6816 122.48 31.7515ZM152.828 26.7797C151.487 26.6992 150.146 26.9229 148.905 27.4337C147.664 27.9446 146.556 28.7293 145.665 29.7285V27.117H139.349V57.961H145.961V47.3848C146.839 48.3066 147.907 49.0287 149.092 49.5015C150.277 49.9743 151.551 50.1865 152.827 50.1237C159.227 50.1237 164.186 45.5726 164.186 38.4522C164.186 31.3317 159.228 26.7797 152.828 26.7797ZM151.683 44.7302C148.376 44.7302 145.876 42.3708 145.876 38.4522C145.876 34.5335 148.376 32.1741 151.683 32.1741C154.989 32.1741 157.49 34.5326 157.49 38.4493C157.49 42.366 154.989 44.7302 151.683 44.7302ZM179.487 50.1237C186.736 50.1237 191.991 45.2784 191.991 38.4522C191.991 31.626 186.736 26.7797 179.487 26.7797C172.239 26.7797 166.941 31.625 166.941 38.4493C166.941 45.2736 172.239 50.1237 179.487 50.1237ZM179.487 44.7302C176.181 44.7302 173.638 42.3708 173.638 38.4522C173.638 34.5335 176.178 32.1732 179.487 32.1732C182.797 32.1732 185.294 34.5326 185.294 38.4512C185.294 42.3698 182.794 44.7302 179.487 44.7302ZM214.833 27.117H192.836V32.5076H200.547V49.7864H207.122V32.5076H214.833V27.117ZM228.1 50.1237C235.348 50.1237 240.603 45.2784 240.603 38.4522C240.603 31.626 235.352 26.7797 228.103 26.7797C220.855 26.7797 215.557 31.625 215.557 38.4493C215.557 45.2736 220.855 50.1237 228.103 50.1237H228.1ZM228.1 44.7302C224.793 44.7302 222.25 42.3708 222.25 38.4522C222.25 34.5335 224.793 32.1741 228.1 32.1741C231.406 32.1741 233.91 34.5326 233.91 38.4493C233.91 42.366 231.414 44.7302 228.103 44.7302H228.1ZM245.139 49.7864H251.708V41.3166H261.626V49.7864H268.237V27.117H261.626V35.9653H251.712V27.117H245.143L245.139 49.7864ZM274.554 49.7864H280.658L291.724 36.3026V49.7864H298.293V27.117H292.232L281.127 40.6007V27.117H274.557L274.554 49.7864ZM304.647 49.7864H311.217V41.3166H321.135V49.7864H327.747V27.117H321.135V35.9653H311.22V27.117H304.65L304.647 49.7864Z" fill="black"/>
<defs>
<linearGradient id="paint0_linear_69_554" x1="31.263" y1="0.311787" x2="31.263" y2="68.6892" gradientUnits="userSpaceOnUse">
<stop stop-color="#73C6FC"/>
<stop offset="1" stop-color="#AEA9FE"/>
</linearGradient>
<linearGradient id="paint1_linear_69_554" x1="31.2626" y1="11.6647" x2="31.2626" y2="57.3372" gradientUnits="userSpaceOnUse">
<stop stop-color="#2BA7FB"/>
<stop offset="1" stop-color="#7F7DFE"/>
</linearGradient>
<linearGradient id="paint2_linear_69_554" x1="31.2635" y1="22.4233" x2="31.2635" y2="46.5787" gradientUnits="userSpaceOnUse">
<stop stop-color="#0099FB"/>
<stop offset="1" stop-color="#6C63FF"/>
</linearGradient>
</defs>
</svg>
