<svg width="15" height="15" viewBox="0 0 15 15" fill="none" xmlns="http://www.w3.org/2000/svg">
<path fill-rule="evenodd" clip-rule="evenodd" d="M6.8194 0.0122051C8.66318 -0.0529341 10.5069 0.142907 12.2959 0.593914C12.5574 0.649467 12.812 0.733903 13.0549 0.84567C13.4672 1.04208 13.8292 1.32994 14.1134 1.68735C14.3977 2.04475 14.5966 2.46228 14.6952 2.90816C15.0997 4.92983 15.1016 7.01142 14.7009 9.03385C14.6178 9.42588 14.4573 9.7974 14.2288 10.1267C14.0004 10.4559 13.7085 10.7363 13.3704 10.9514C13.0488 11.16 12.6838 11.2874 12.3115 11.371C12.2248 11.3882 12.1468 11.4351 12.0911 11.5037C12.0353 11.5724 12.0054 11.6583 12.0063 11.7467C12.0063 12.5359 12.0063 13.3251 12.0063 14.1144C12.0205 14.2593 11.8198 14.3108 11.7244 14.2288C10.9249 13.5552 10.1261 12.8813 9.32781 12.2071C9.22502 12.1138 9.10452 12.042 8.97346 11.9962C8.84241 11.9503 8.70348 11.9312 8.56491 11.9401C6.47309 12.0545 4.37646 11.8326 2.35493 11.2829C1.34409 10.9827 0.53084 10.1088 0.3096 9.07657C-0.101912 7.03961 -0.103209 4.94105 0.305785 2.90359C0.525118 1.85117 1.36507 0.962775 2.39918 0.674018C3.84226 0.284295 5.32546 0.0622244 6.8194 0.0122051V0.0122051Z" fill="#FF0003"/>
<path fill-rule="evenodd" clip-rule="evenodd" d="M4.45855 2.65526C4.36253 2.6696 4.27492 2.71814 4.21184 2.79194C4.14876 2.86574 4.11446 2.95984 4.11525 3.05693C4.11525 3.53755 4.11525 4.01818 4.11525 4.4988C4.11525 4.71012 4.30864 4.89436 4.51844 4.89208C4.951 4.89208 5.38356 4.89208 5.81536 4.89208C5.90462 4.89208 5.99808 4.88216 6.08238 4.91573C6.16281 4.94355 6.23239 4.99608 6.28117 5.06582C6.32995 5.13557 6.35543 5.21894 6.35397 5.30404C6.35397 6.58876 6.35397 7.87297 6.35397 9.15667C6.35305 9.21167 6.36314 9.2663 6.38364 9.31735C6.40414 9.36839 6.43463 9.41483 6.47333 9.45392C6.51204 9.49301 6.55816 9.52397 6.609 9.54498C6.65984 9.56599 6.71436 9.57663 6.76937 9.57626C7.3034 9.57626 7.83742 9.57626 8.37145 9.57626C8.60032 9.59228 8.81508 9.38287 8.79944 9.15171C8.79944 7.86699 8.79944 6.58278 8.79944 5.29908C8.78914 5.07899 8.99016 4.88483 9.2072 4.89131C9.67753 4.88902 10.1479 4.89131 10.6186 4.89131C10.8318 4.90314 11.0363 4.72386 11.0382 4.50986C11.0408 4.02466 11.0382 3.5387 11.0382 3.05349C11.0473 2.83035 10.8364 2.63924 10.6186 2.65183C8.56828 2.65488 6.51303 2.64649 4.45855 2.65526Z" fill="#FEFEFE"/>
</svg>
