<svg width="15" height="9" viewBox="0 0 15 9" fill="none" xmlns="http://www.w3.org/2000/svg">
<path fill-rule="evenodd" clip-rule="evenodd" d="M14.6559 0.592488C14.7597 0.251245 14.6559 0 14.1591 0H12.5185C12.101 0 11.9085 0.21687 11.8041 0.45624C11.8041 0.45624 10.9698 2.4537 9.78792 3.75117C9.40543 4.12741 9.23168 4.24679 9.02294 4.24679C8.91856 4.24679 8.76169 4.12741 8.76169 3.78555V0.592488C8.76169 0.182496 8.64669 0 8.2992 0H5.71926C5.45864 0 5.30176 0.189996 5.30176 0.370617C5.30176 0.758734 5.893 0.848732 5.95363 1.94121V4.31491C5.95363 4.83552 5.858 4.9299 5.64926 4.9299C5.09302 4.9299 3.73992 2.92306 2.93681 0.626862C2.78119 0.179996 2.62369 0 2.20433 0H0.562488C0.093748 0 0 0.21687 0 0.45624C0 0.882482 0.556238 2.99994 2.59057 5.8005C3.94679 7.71296 5.85613 8.74982 7.59547 8.74982C8.63857 8.74982 8.76732 8.51982 8.76732 8.12296V6.67736C8.76732 6.21675 8.86606 6.12487 9.19668 6.12487C9.44043 6.12487 9.85729 6.24487 10.831 7.16673C11.9435 8.25983 12.1266 8.74982 12.7529 8.74982H14.3934C14.8622 8.74982 15.0972 8.51982 14.9622 8.06483C14.8134 7.61234 14.2822 6.95548 13.5778 6.17612C13.1953 5.73238 12.6216 5.25427 12.4472 5.0149C12.2041 4.70803 12.2735 4.57115 12.4472 4.29804C12.4472 4.29804 14.4472 1.53184 14.6553 0.592488H14.6559Z" fill="#373737"/>
</svg>
